<svg width="43" height="41" viewBox="0 0 43 41" fill="none" xmlns="http://www.w3.org/2000/svg">
<path d="M0.8125 3.625C0.8125 2.06934 2.06934 0.8125 3.625 0.8125H28.9375C30.4932 0.8125 31.75 2.06934 31.75 3.625V6.4375H36.25C39.9766 6.4375 43 9.46094 43 13.1875V22.1611C43 24.833 41.4268 27.25 38.9922 28.3311L31.75 31.5479V34.5625C31.75 37.665 29.2275 40.1875 26.125 40.1875H6.4375C3.33496 40.1875 0.8125 37.665 0.8125 34.5625V3.625ZM31.75 25.3867L36.707 23.1807C37.1113 22.9961 37.375 22.6006 37.375 22.1523V13.1787C37.375 12.5547 36.874 12.0537 36.25 12.0537L31.75 12.0625V25.3867ZM12.0625 10.6562C12.0625 9.88281 11.4297 9.25 10.6562 9.25C9.88281 9.25 9.25 9.88281 9.25 10.6562V30.3438C9.25 31.1172 9.88281 31.75 10.6562 31.75C11.4297 31.75 12.0625 31.1172 12.0625 30.3438V10.6562ZM17.6875 10.6562C17.6875 9.88281 17.0547 9.25 16.2812 9.25C15.5078 9.25 14.875 9.88281 14.875 10.6562V30.3438C14.875 31.1172 15.5078 31.75 16.2812 31.75C17.0547 31.75 17.6875 31.1172 17.6875 30.3438V10.6562ZM23.3125 10.6562C23.3125 9.88281 22.6797 9.25 21.9062 9.25C21.1328 9.25 20.5 9.88281 20.5 10.6562V30.3438C20.5 31.1172 21.1328 31.75 21.9062 31.75C22.6797 31.75 23.3125 31.1172 23.3125 30.3438V10.6562Z" fill="white"/>
</svg>
