<svg width="30" height="27" viewBox="0 0 30 27" fill="none" xmlns="http://www.w3.org/2000/svg">
<path d="M29.9895 13.4736C29.9895 14.4229 29.2082 15.1664 28.3228 15.1664H26.6561L26.6926 23.6145C26.6926 23.7568 26.6822 23.8992 26.6666 24.0416V24.8959C26.6666 26.0613 25.7343 27.0053 24.5832 27.0053H23.7499C23.6926 27.0053 23.6353 27.0053 23.578 27C23.5051 27.0053 23.4322 27.0053 23.3593 27.0053L21.6666 27H20.4166C19.2655 27 18.3332 26.0561 18.3332 24.8906V23.625V20.25C18.3332 19.3166 17.5884 18.5625 16.6666 18.5625H13.3332C12.4113 18.5625 11.6666 19.3166 11.6666 20.25V23.625V24.8906C11.6666 26.0561 10.7343 27 9.58322 27H8.33322H6.67176C6.59364 27 6.51551 26.9947 6.43739 26.9895C6.37489 26.9947 6.31239 27 6.24989 27H5.41655C4.26551 27 3.33322 26.0561 3.33322 24.8906V18.9844C3.33322 18.9369 3.33322 18.8842 3.33843 18.8367V15.1611H1.67176C0.734263 15.1611 0.00509644 14.4229 0.00509644 13.4684C0.00509644 12.9937 0.161346 12.5719 0.52593 12.2027L13.8749 0.421875C14.2395 0.0527344 14.6561 0 15.0207 0C15.3853 0 15.802 0.105469 16.1145 0.369141L29.4166 12.208C29.8332 12.5771 30.0416 12.999 29.9895 13.4736Z" fill="white"/>
</svg>
