<svg width="32" height="43" viewBox="0 0 32 43" fill="none" xmlns="http://www.w3.org/2000/svg">
<path d="M17.975 41.925C22.25 36.5332 32 23.4652 32 16.125C32 7.22266 24.8333 0 16 0C7.16667 0 0 7.22266 0 16.125C0 23.4652 9.75 36.5332 14.025 41.925C15.05 43.21 16.95 43.21 17.975 41.925ZM16 10.75C17.4145 10.75 18.771 11.3163 19.7712 12.3243C20.7714 13.3323 21.3333 14.6995 21.3333 16.125C21.3333 17.5505 20.7714 18.9177 19.7712 19.9257C18.771 20.9337 17.4145 21.5 16 21.5C14.5855 21.5 13.229 20.9337 12.2288 19.9257C11.2286 18.9177 10.6667 17.5505 10.6667 16.125C10.6667 14.6995 11.2286 13.3323 12.2288 12.3243C13.229 11.3163 14.5855 10.75 16 10.75Z" fill="white"/>
</svg>
