<svg width="31" height="31" viewBox="0 0 31 31" fill="none" xmlns="http://www.w3.org/2000/svg">
<path d="M22.8807 6.41191L30.3158 13.8471C30.7518 14.283 31 14.8824 31 15.5C31 16.1176 30.7518 16.717 30.3158 17.1529L22.8807 24.5881C22.4932 24.9756 21.9725 25.1875 21.4275 25.1875C20.2953 25.1875 19.375 24.2672 19.375 23.135V19.375H11.625C10.5533 19.375 9.6875 18.5092 9.6875 17.4375V13.5625C9.6875 12.4908 10.5533 11.625 11.625 11.625H19.375V7.86504C19.375 6.73281 20.2953 5.8125 21.4275 5.8125C21.9725 5.8125 22.4932 6.03047 22.8807 6.41191ZM9.6875 5.8125H5.8125C4.74082 5.8125 3.875 6.67832 3.875 7.75V23.25C3.875 24.3217 4.74082 25.1875 5.8125 25.1875H9.6875C10.7592 25.1875 11.625 26.0533 11.625 27.125C11.625 28.1967 10.7592 29.0625 9.6875 29.0625H5.8125C2.60352 29.0625 0 26.459 0 23.25V7.75C0 4.54102 2.60352 1.9375 5.8125 1.9375H9.6875C10.7592 1.9375 11.625 2.80332 11.625 3.875C11.625 4.94668 10.7592 5.8125 9.6875 5.8125Z" fill="white"/>
</svg>
