<svg width="33" height="33" viewBox="0 0 33 33" fill="none" xmlns="http://www.w3.org/2000/svg">
<path d="M25.3526 0.604248C26.1583 -0.201416 27.4667 -0.201416 28.2724 0.604248L32.3974 4.72925C33.203 5.53491 33.203 6.84331 32.3974 7.64897C31.6368 8.40952 30.4187 8.45464 29.613 7.77144L29.0007 8.38374L25.8554 11.5291C25.2624 12.122 25.1142 13.005 25.3011 13.8236C25.9069 16.4597 25.1786 19.3408 23.1226 21.3968L12.7134 31.7931C11.1021 33.4044 8.4917 33.4044 6.88037 31.7931L1.2085 26.1212C-0.402832 24.5099 -0.402832 21.8996 1.2085 20.2882L11.6112 9.87905C13.6673 7.823 16.5483 7.10112 19.1845 7.70054C19.9966 7.88745 20.886 7.73276 21.4726 7.14624L24.6179 4.00093L25.2302 3.38862C24.547 2.57651 24.5856 1.36479 25.3526 0.604248ZM6.39697 22.383L10.6122 26.5982C11.0118 26.9978 11.6692 26.9978 12.0688 26.5982L18.3466 20.3205C18.7462 19.9208 18.7462 19.2634 18.3466 18.8638L14.1313 14.6486C13.7317 14.249 13.0743 14.249 12.6747 14.6486L6.39697 20.9263C5.99736 21.3259 5.99736 21.9833 6.39697 22.383Z" fill="white"/>
</svg>
