<svg width="46" height="52" viewBox="0 0 46 52" fill="none" xmlns="http://www.w3.org/2000/svg">
<path d="M26.2857 8.125C26.2857 6.32734 24.8174 4.875 23 4.875C21.1826 4.875 19.7143 6.32734 19.7143 8.125V22.75H4.92857C3.11116 22.75 1.64285 24.2023 1.64285 26C1.64285 27.7977 3.11116 29.25 4.92857 29.25H19.7143V43.875C19.7143 45.6727 21.1826 47.125 23 47.125C24.8174 47.125 26.2857 45.6727 26.2857 43.875V29.25H41.0714C42.8888 29.25 44.3571 27.7977 44.3571 26C44.3571 24.2023 42.8888 22.75 41.0714 22.75H26.2857V8.125Z" fill="white"/>
</svg>
