<svg width="25" height="24" viewBox="0 0 25 24" fill="none" xmlns="http://www.w3.org/2000/svg">
<path d="M14.2857 2.375C14.2857 1.40703 13.4877 0.625 12.5 0.625C11.5123 0.625 10.7143 1.40703 10.7143 2.375V10.25H2.6786C1.69087 10.25 0.892883 11.032 0.892883 12C0.892883 12.968 1.69087 13.75 2.6786 13.75H10.7143V21.625C10.7143 22.593 11.5123 23.375 12.5 23.375C13.4877 23.375 14.2857 22.593 14.2857 21.625V13.75H22.3215C23.3092 13.75 24.1072 12.968 24.1072 12C24.1072 11.032 23.3092 10.25 22.3215 10.25H14.2857V2.375Z" fill="#21BB69"/>
</svg>
